<?xml version="1.0" encoding="UTF-8"?>
<svg id="Layer_1" xmlns="http://www.w3.org/2000/svg" version="1.1" viewBox="0 0 204.7 189.4">
  <!-- Generator: Adobe Illustrator 30.3.0, SVG Export Plug-In . SVG Version: 2.1.3 Build 182)  -->
  <defs>
    <style>
      .st0 {
        fill: #f5f1e8;
      }
    </style>
  </defs>
  <path class="st0" d="M145.2,127.6c2.7-4.4,5.1-9,7.2-13.7,2.3-5.1,7.8-22.7,11.5-25.1,5-3.2,10,3.8,14.5,6,11.2,5.5,22.4-.6,25.5-12.2,1.7-6.4.7-11.9-1.6-18-11.1-29-55.3-17.6-70.1,2.2-9.2,12.3,2.3,17,2.2,28.5,0,5.6-3.9,13.6-6.8,18.3-.8.2-9.8-9.1-11.2-10.6-4.8-4.9-14.4-14.2-18-19.3-.8-1.1-1.5-2-1.3-3.5,1.5,0,2.8-.7,4.1-1.4,9-5.3,21-16.2,24.7-26C145.4.2,52.6-21.3,31.4,26.9c-8.7,19.7-3.9,37.2,9.1,53.3-5,4.9-11.5,7.9-17,12.6C.3,112.9-9.6,142.2,11.9,168c23.7,28.4,65.5,26.4,94.1,6.6,8.5-5.9,15.2-14.4,21.6-22.4,6.4-7.9,12.4-16,17.6-24.6ZM67.5,33.4c4.3-5.9,13.7-7.8,19-2,7.8,8.4,1.5,25.6-8.4,29.9-7.1-6.5-17.8-18-10.7-27.8ZM58.9,150.5c-2.7-1.7-8.5-8.2-10.2-11-4.7-7.9-4.4-14.2,0-22.1,1.4-2.4,10.1-13.9,12.9-12.3l36.1,38.1c-8.6,8-28.2,14-38.7,7.4h0Z"/>
</svg>